{
  "accessors": [
    {
      "bufferView": 2,
      "componentType": 5126,
      "count": 65532,
      "max": [
        3.6258900165557861,
        3.0638256072998047,
        2.4410979747772217
      ],
      "min": [
        0.10458695888519287,
        0.73775053024291992,
        7.2002410888671875e-05
      ],
      "type": "VEC3"
    },
    {
      "bufferView": 2,
      "byteOffset": 786384,
      "componentType": 5126,
      "count": 65532,
      "max": [
        0.99990791082382202,
        0.99999493360519409,
        0.9999319314956665
      ],
      "min": [
        -0.99982190132141113,
        -0.99969911575317383,
        -0.99999111890792847
      ],
      "type": "VEC3"
    },
    {
      "bufferView": 3,
      "componentType": 5126,
      "count": 65532,
      "max": [
        0.99969804286956787,
        0.99999946355819702,
        0.99992531538009644,
        1
      ],
      "min": [
        -0.99958384037017822,
        -0.9999120831489563,
        -0.99998772144317627,
        -1
      ],
      "type": "VEC4"
    },
    {
      "bufferView": 1,
      "componentType": 5126,
      "count": 65532,
      "max": [
        0.99151098728179932,
        0.99918699264526367
      ],
      "min": [
        0.0067099998705089092,
        0.0036929999478161335
      ],
      "type": "VEC2"
    },
    {
      "bufferView": 0,
      "componentType": 5125,
      "count": 346731,
      "max": [
        65531
      ],
      "min": [
        0
      ],
      "type": "SCALAR"
    },
    {
      "bufferView": 2,
      "byteOffset": 1572768,
      "componentType": 5126,
      "count": 65532,
      "max": [
        3.5070250034332275,
        2.4257669448852539,
        2.4903919696807861
      ],
      "min": [
        0,
        0.5756378173828125,
        0
      ],
      "type": "VEC3"
    },
    {
      "bufferView": 2,
      "byteOffset": 2359152,
      "componentType": 5126,
      "count": 65532,
      "max": [
        0.99999940395355225,
        0.9999733567237854,
        0.99999761581420898
      ],
      "min": [
        -0.99997478723526001,
        -1,
        -0.99999082088470459
      ],
      "type": "VEC3"
    },
    {
      "bufferView": 3,
      "byteOffset": 1048512,
      "componentType": 5126,
      "count": 65532,
      "max": [
        0.99857825040817261,
        0.99991834163665771,
        0.99979430437088013,
        1
      ],
      "min": [
        -0.99989604949951172,
        -0.99998688697814941,
        -0.9999813437461853,
        -1
      ],
      "type": "VEC4"
    },
    {
      "bufferView": 1,
      "byteOffset": 524256,
      "componentType": 5126,
      "count": 65532,
      "max": [
        0.99225902557373047,
        0.99941599369049072
      ],
      "min": [
        0.0052140001207590103,
        0.0038709999062120914
      ],
      "type": "VEC2"
    },
    {
      "bufferView": 0,
      "byteOffset": 1386924,
      "componentType": 5125,
      "count": 325014,
      "max": [
        65531
      ],
      "min": [
        0
      ],
      "type": "SCALAR"
    },
    {
      "bufferView": 2,
      "byteOffset": 3145536,
      "componentType": 5126,
      "count": 65532,
      "max": [
        3.3902578353881836,
        1.9603595733642578,
        2.4935529232025146
      ],
      "min": [
        0.0097379684448242188,
        0.16997957229614258,
        0.022662043571472168
      ],
      "type": "VEC3"
    },
    {
      "bufferView": 2,
      "byteOffset": 3931920,
      "componentType": 5126,
      "count": 65532,
      "max": [
        0.99999940395355225,
        0.99989789724349976,
        0.99998706579208374
      ],
      "min": [
        -0.99997478723526001,
        -0.99983566999435425,
        -0.99998903274536133
      ],
      "type": "VEC3"
    },
    {
      "bufferView": 3,
      "byteOffset": 2097024,
      "componentType": 5126,
      "count": 65532,
      "max": [
        0.99999892711639404,
        0.99987566471099854,
        0.99998229742050171,
        1
      ],
      "min": [
        -0.99994617700576782,
        -0.99998652935028076,
        -0.99990880489349365,
        -1
      ],
      "type": "VEC4"
    },
    {
      "bufferView": 1,
      "byteOffset": 1048512,
      "componentType": 5126,
      "count": 65532,
      "max": [
        0.98933601379394531,
        0.99930399656295776
      ],
      "min": [
        0.0037819999270141125,
        0.023935999721288681
      ],
      "type": "VEC2"
    },
    {
      "bufferView": 0,
      "byteOffset": 2686980,
      "componentType": 5125,
      "count": 320394,
      "max": [
        65531
      ],
      "min": [
        0
      ],
      "type": "SCALAR"
    },
    {
      "bufferView": 2,
      "byteOffset": 4718304,
      "componentType": 5126,
      "count": 32137,
      "max": [
        3.0531949996948242,
        1.2839579582214355,
        2.4861080646514893
      ],
      "min": [
        0.00021994113922119141,
        0,
        0.040555000305175781
      ],
      "type": "VEC3"
    },
    {
      "bufferView": 2,
      "byteOffset": 5103948,
      "componentType": 5126,
      "count": 32137,
      "max": [
        0.99884164333343506,
        0.99870437383651733,
        0.9997551441192627
      ],
      "min": [
        -0.99958741664886475,
        -0.99999606609344482,
        -0.99974119663238525
      ],
      "type": "VEC3"
    },
    {
      "bufferView": 3,
      "byteOffset": 3145536,
      "componentType": 5126,
      "count": 32137,
      "max": [
        0.99990791082382202,
        0.99750047922134399,
        0.99724847078323364,
        1
      ],
      "min": [
        -0.99947625398635864,
        -0.99998253583908081,
        -0.91993427276611328,
        -1
      ],
      "type": "VEC4"
    },
    {
      "bufferView": 1,
      "byteOffset": 1572768,
      "componentType": 5126,
      "count": 32137,
      "max": [
        0.98168498277664185,
        0.9949219822883606
      ],
      "min": [
        0.0026509999297559261,
        0.0035039999056607485
      ],
      "type": "VEC2"
    },
    {
      "bufferView": 0,
      "byteOffset": 3968556,
      "componentType": 5125,
      "count": 156963,
      "max": [
        32136
      ],
      "min": [
        0
      ],
      "type": "SCALAR"
    }
  ],
  "asset": {
    "generator": "Sketchfab (OSG glTF plugin)",
    "version": "2.0"
  },
  "bufferViews": [
    {
      "buffer": 0,
      "byteLength": 4596408,
      "byteOffset": 0,
      "name": "floatBufferViews",
      "target": 34963
    },
    {
      "buffer": 0,
      "byteLength": 1829864,
      "byteOffset": 4596408,
      "byteStride": 8,
      "name": "floatBufferViews",
      "target": 34962
    },
    {
      "buffer": 0,
      "byteLength": 5489592,
      "byteOffset": 6426272,
      "byteStride": 12,
      "name": "floatBufferViews",
      "target": 34962
    },
    {
      "buffer": 0,
      "byteLength": 3659728,
      "byteOffset": 11915864,
      "byteStride": 16,
      "name": "floatBufferViews",
      "target": 34962
    }
  ],
  "buffers": [
    {
      "byteLength": 15575592,
      "uri": "scene.bin"
    }
  ],
  "images": [
    {
      "uri": "textures/material_0_baseColor.jpeg"
    }
  ],
  "materials": [
    {
      "doubleSided": true,
      "emissiveFactor": [
        0,
        0,
        0
      ],
      "name": "material_0",
      "pbrMetallicRoughness": {
        "baseColorFactor": [
          1,
          1,
          1,
          1
        ],
        "baseColorTexture": {
          "index": 0,
          "texCoord": 0
        },
        "metallicFactor": 0,
        "roughnessFactor": 0.59999999999999998
      }
    }
  ],
  "meshes": [
    {
      "primitives": [
        {
          "attributes": {
            "NORMAL": 1,
            "POSITION": 0,
            "TANGENT": 2,
            "TEXCOORD_0": 3
          },
          "indices": 4,
          "material": 0,
          "mode": 4
        }
      ]
    },
    {
      "primitives": [
        {
          "attributes": {
            "NORMAL": 6,
            "POSITION": 5,
            "TANGENT": 7,
            "TEXCOORD_0": 8
          },
          "indices": 9,
          "material": 0,
          "mode": 4
        }
      ]
    },
    {
      "primitives": [
        {
          "attributes": {
            "NORMAL": 11,
            "POSITION": 10,
            "TANGENT": 12,
            "TEXCOORD_0": 13
          },
          "indices": 14,
          "material": 0,
          "mode": 4
        }
      ]
    },
    {
      "primitives": [
        {
          "attributes": {
            "NORMAL": 16,
            "POSITION": 15,
            "TANGENT": 17,
            "TEXCOORD_0": 18
          },
          "indices": 19,
          "material": 0,
          "mode": 4
        }
      ]
    }
  ],
  "nodes": [
    {
      "children": [
        1
      ],
      "name": "RootNode (gltf orientation matrix)",
      "rotation": [
        -0.70710678118654746,
        -0,
        -0,
        0.70710678118654757
      ]
    },
    {
      "children": [
        2
      ],
      "matrix": [
        0.75981050729751587,
        0.61967241764068604,
        0.19670803844928741,
        0,
        -0.35395523905754089,
        0.64806246757507324,
        -0.67433720827102661,
        0,
        -0.54534727334976196,
        0.44274267554283142,
        0.71174097061157227,
        0,
        -2.4735572338104248,
        -1.9479011297225952,
        -4.3226089477539062,
        1
      ],
      "name": "RootNode (model correction matrix)"
    },
    {
      "children": [
        7
      ],
      "matrix": [
        1,
        0,
        0,
        0,
        0,
        1,
        0,
        0,
        0,
        0,
        1,
        0,
        -1.9148859977722168,
        -7.78778076171875,
        -1.6772840023040771,
        1
      ],
      "name": "skull.obj.cleaner.gles"
    },
    {
      "mesh": 0,
      "name": ""
    },
    {
      "mesh": 1,
      "name": ""
    },
    {
      "mesh": 2,
      "name": ""
    },
    {
      "mesh": 3,
      "name": ""
    },
    {
      "children": [
        3,
        4,
        5,
        6
      ],
      "name": "Geode"
    }
  ],
  "samplers": [
    {
      "magFilter": 9729,
      "minFilter": 9987,
      "wrapS": 10497,
      "wrapT": 10497
    }
  ],
  "scene": 0,
  "scenes": [
    {
      "name": "OSG_Scene",
      "nodes": [
        0
      ]
    }
  ],
  "textures": [
    {
      "sampler": 0,
      "source": 0
    }
  ]
}

